<svg width="102" height="48" viewBox="0 0 102 48" fill="none" xmlns="http://www.w3.org/2000/svg">
<path d="M0 0H86C94.8366 0 102 7.16344 102 16V32C102 40.8366 94.8366 48 86 48H0V0Z" fill="#D9EBCD"/>
<path d="M60.71 32.29L57 28.61C58.4401 26.8144 59.1375 24.5353 58.9488 22.2413C58.7601 19.9473 57.6997 17.8128 55.9855 16.2766C54.2714 14.7405 52.0338 13.9195 49.7329 13.9825C47.432 14.0454 45.2427 14.9876 43.6151 16.6151C41.9876 18.2427 41.0454 20.432 40.9825 22.7329C40.9195 25.0338 41.7405 27.2714 43.2766 28.9855C44.8128 30.6997 46.9473 31.7601 49.2413 31.9488C51.5353 32.1375 53.8144 31.4401 55.61 30L59.29 33.68C59.383 33.7737 59.4936 33.8481 59.6154 33.8989C59.7373 33.9497 59.868 33.9758 60 33.9758C60.132 33.9758 60.2627 33.9497 60.3846 33.8989C60.5064 33.8481 60.617 33.7737 60.71 33.68C60.8902 33.4935 60.991 33.2443 60.991 32.985C60.991 32.7257 60.8902 32.4765 60.71 32.29ZM50 30C48.6155 30 47.2621 29.5895 46.111 28.8203C44.9599 28.0511 44.0627 26.9579 43.5328 25.6788C43.003 24.3997 42.8644 22.9922 43.1345 21.6344C43.4046 20.2765 44.0713 19.0292 45.0502 18.0502C46.0292 17.0713 47.2765 16.4046 48.6344 16.1345C49.9922 15.8644 51.3997 16.003 52.6788 16.5328C53.9579 17.0627 55.0511 17.9599 55.8203 19.111C56.5895 20.2621 57 21.6155 57 23C57 24.8565 56.2625 26.637 54.9497 27.9497C53.637 29.2625 51.8565 30 50 30Z" fill="#11453B"/>
</svg>
